<svg t="1706446958669" class="icon" viewBox="0 0 1024 1024" version="1.1" xmlns="http://www.w3.org/2000/svg" p-id="5732" id="mx_n_1706446958671" width="300" height="300"><path d="M700.283058 443.471239l-2.559933 1.343965a214.138379 214.138379 0 0 1-7.679799 40.574935l-50.494674 177.531339 117.820907-63.61433-50.174683-122.044796a115.516968 115.516968 0 0 1-6.911818-33.791113z m207.866543-214.394372l-102.781302-62.462361-378.422066 231.929912a74.686039 74.686039 0 0 0-34.68709 63.550332v206.906569l-169.595548-104.637254V352.721621a74.046056 74.046056 0 0 1 36.223049-64.446308l382.581957-220.794204 14.463621 8.511776L546.943083 9.882621a66.942243 66.942243 0 0 0-70.014162 0L115.786401 229.076867a74.558043 74.558043 0 0 0-35.007081 63.742326v438.388493c-0.127997 26.111315 13.119656 50.30268 35.007081 63.806325l361.14252 219.194246c21.567434 13.055657 48.38273 13.055657 70.014162 0l361.270516-219.194246c21.69543-13.247652 35.071079-37.439017 35.07108-63.806325v-438.388493a74.430046 74.430046 0 0 0-35.135078-63.742326z m-95.485493 509.746619l-33.087132-80.701882-160.571785 86.781722-32.511146 116.220949-102.205318 55.166552 161.723755-517.554414 110.717094-59.838429 158.651835 344.502957-102.717303 55.422545z m0 0" fill="#722ED1" p-id="5733"></path></svg>
